<svg width="32" height="32" viewBox="0 0 32 32" fill="none" xmlns="http://www.w3.org/2000/svg">
<path d="M23.265 24.381L24.165 23.487C28.329 23.623 28.393 23.477 28.576 23.049L29.72 20.264L29.805 20L29.712 19.769C29.663 19.647 29.512 19.283 26.912 16.804V15.5C29.912 12.61 29.848 12.462 29.677 12.039L28.538 9.22502C28.367 8.80302 28.302 8.63802 24.168 8.75102L23.268 7.82102C23.3609 6.45112 23.3137 5.07531 23.127 3.71502L23.011 3.45202L20.037 2.15202C19.599 1.95202 19.445 1.88002 16.637 4.93802L15.375 4.91902C12.484 1.83302 12.347 1.88902 11.914 2.06402L9.149 3.18202C8.716 3.35702 8.563 3.41902 8.731 7.61902L7.838 8.50902C3.676 8.37302 3.612 8.52102 3.431 8.94702L2.285 11.733L2.195 12L2.289 12.232C2.338 12.352 2.483 12.712 5.089 15.194V16.494C2.089 19.384 2.154 19.532 2.326 19.956L3.464 22.773C3.638 23.204 3.7 23.357 7.833 23.249L8.733 24.184C8.63971 25.5518 8.68561 26.9255 8.87 28.284L8.986 28.549L11.979 29.857C12.414 30.039 12.565 30.104 15.365 27.057L16.627 27.073C19.522 30.163 19.67 30.103 20.093 29.932L22.852 28.817C23.288 28.644 23.44 28.583 23.265 24.381ZM11.407 17.857C11.0581 16.9451 10.9862 15.9504 11.2005 14.9978C11.4148 14.0451 11.9056 13.177 12.6114 12.5023C13.3173 11.8276 14.2066 11.3764 15.1679 11.2053C16.1292 11.0341 17.1197 11.1507 18.015 11.5404C18.9103 11.9301 19.6705 12.5755 20.2004 13.3957C20.7302 14.2159 21.006 15.1743 20.9932 16.1506C20.9804 17.1269 20.6795 18.0778 20.1283 18.8837C19.5772 19.6897 18.8002 20.315 17.895 20.681C16.6599 21.164 15.2838 21.138 14.0679 20.6087C12.8519 20.0795 11.8952 19.09 11.407 17.857Z" fill="white"/>
</svg>
