<?xml version="1.0"?>
<svg xmlns="http://www.w3.org/2000/svg" xmlns:xlink="http://www.w3.org/1999/xlink" xmlns:svgjs="http://svgjs.com/svgjs" version="1.1" width="512" height="512" x="0" y="0" viewBox="0 0 512 512" style="enable-background:new 0 0 512 512" xml:space="preserve" class=""><g>
<path xmlns="http://www.w3.org/2000/svg" style="" d="M463.599,390.5L297.1,499.699C284.801,507.8,270.399,512,256,512c-14.399,0-28.801-4.2-41.1-12.301  L48.401,390.5C20.8,372.199,21.1,331.399,49.3,313.999L152.8,249.2h206.4l103.5,64.799  C490.901,331.399,491.201,372.199,463.599,390.5z" fill="#ec9046" data-original="#ec9046" class=""/>
<path xmlns="http://www.w3.org/2000/svg" style="" d="M463.599,390.5L297.1,499.699C284.801,507.8,270.399,512,256,512V249.2h103.2l103.5,64.799  C490.901,331.399,491.201,372.199,463.599,390.5z" fill="#e6733c" data-original="#e6733c" class=""/>
<polygon xmlns="http://www.w3.org/2000/svg" style="" points="356.8,218.5 334.9,247.899 177.1,247.899 155.2,218.5 169.6,166.3 207.4,137.199   304.6,137.199 342.4,166.3 " fill="#f6b73c" data-original="#f6b73c" class=""/>
<polygon xmlns="http://www.w3.org/2000/svg" style="" points="356.8,218.5 334.9,247.899 256,247.899 256,137.199 304.6,137.199 342.4,166.3 " fill="#f29737" data-original="#f29737" class=""/>
<path xmlns="http://www.w3.org/2000/svg" style="" d="M372.4,275.2l-22.2,28.799H161.8L139.9,275.2c9.3-34.501,6-22.2,15.3-56.7  c18.6,8.401,56.999,22.5,100.8,22.5c44.099,0,82.2-14.099,100.8-22.5C366.4,253.9,362.8,241,372.4,275.2z" fill="#e6eeff" data-original="#e6eeff" class=""/>
<path xmlns="http://www.w3.org/2000/svg" style="" d="M372.4,275.2l-22.2,28.799H256V241c44.099,0,82.2-14.099,100.8-22.5  C366.4,253.9,362.8,241,372.4,275.2z" fill="#dae2f2" data-original="#dae2f2" class=""/>
<path xmlns="http://www.w3.org/2000/svg" style="" d="M383.2,359.2c-2.1,1.199-57.9,31.8-127.2,31.8s-125.099-30.601-127.2-31.8c-6-3.6-9-10.499-7.2-17.1  c11.1-40.499,8.099-29.7,18.3-66.899C168.1,285.399,219.699,301,256,301s88.2-15.601,116.4-25.8  c9.3,35.099,7.2,26.999,17.999,66.899C392.199,348.701,389.2,355.6,383.2,359.2z" fill="#f6b73c" data-original="#f6b73c" class=""/>
<path xmlns="http://www.w3.org/2000/svg" style="" d="M383.2,359.2c-2.1,1.199-57.9,31.8-127.2,31.8v-90c36.301,0,88.2-15.601,116.4-25.8  c9.3,35.099,7.2,26.999,17.999,66.899C392.199,348.701,389.2,355.6,383.2,359.2z" fill="#f29737" data-original="#f29737" class=""/>
<path xmlns="http://www.w3.org/2000/svg" style="" d="M342.4,166.3c-22.5,7.5-52.8,14.7-86.4,14.7s-63.9-7.2-86.4-14.7c9.3-34.501,6.301-23.701,15-55.501  L222.4,81.7L256,82h33.6l37.8,28.799C336.099,142.599,333.1,131.201,342.4,166.3z" fill="#e6eeff" data-original="#e6eeff" class=""/>
<path xmlns="http://www.w3.org/2000/svg" style="" d="M342.4,166.3c-22.5,7.5-52.8,14.7-86.4,14.7V82h33.6l37.8,28.799  C336.099,142.599,333.1,131.201,342.4,166.3z" fill="#dae2f2" data-original="#dae2f2" class=""/>
<path xmlns="http://www.w3.org/2000/svg" style="" d="M327.4,110.799C307,116.499,282.7,121,256,121s-51-4.501-71.4-10.201c9.6-35.4,4.801-18.399,21-77.5  C210.7,13.5,228.701,0,248.8,0h14.4c20.099,0,38.101,13.5,43.2,33.3C320.799,85.201,316.601,71.201,327.4,110.799z" fill="#f6b73c" data-original="#f6b73c" class=""/>
<path xmlns="http://www.w3.org/2000/svg" style="" d="M327.4,110.799C307,116.499,282.7,121,256,121V0h7.2c20.099,0,38.101,13.5,43.2,33.3  C320.799,85.201,316.601,71.201,327.4,110.799z" fill="#f29737" data-original="#f29737" class=""/>
<g xmlns="http://www.w3.org/2000/svg">
</g>
<g xmlns="http://www.w3.org/2000/svg">
</g>
<g xmlns="http://www.w3.org/2000/svg">
</g>
<g xmlns="http://www.w3.org/2000/svg">
</g>
<g xmlns="http://www.w3.org/2000/svg">
</g>
<g xmlns="http://www.w3.org/2000/svg">
</g>
<g xmlns="http://www.w3.org/2000/svg">
</g>
<g xmlns="http://www.w3.org/2000/svg">
</g>
<g xmlns="http://www.w3.org/2000/svg">
</g>
<g xmlns="http://www.w3.org/2000/svg">
</g>
<g xmlns="http://www.w3.org/2000/svg">
</g>
<g xmlns="http://www.w3.org/2000/svg">
</g>
<g xmlns="http://www.w3.org/2000/svg">
</g>
<g xmlns="http://www.w3.org/2000/svg">
</g>
<g xmlns="http://www.w3.org/2000/svg">
</g>
</g></svg>
