<svg width="20px" height="20px" viewBox="0 0 25 25" fill="none" xmlns="http://www.w3.org/2000/svg">
<path d="M23.24 1.75934C21.1917 -0.290556 19.6534 0.0162886 19.6534 0.0162886L11.0568 8.61363L1.43466 18.2352L0 25L6.76561 23.5652L16.3877 13.9465L24.9843 5.34914C24.9829 5.34914 25.2911 3.81065 23.24 1.75934ZM6.36362 22.7526L4.05681 23.2498C3.80152 22.7599 3.47077 22.3131 3.0767 21.9259C2.68912 21.5318 2.24247 21.2006 1.75284 20.9442L2.24999 18.6386L2.91761 17.9724C2.91761 17.9724 4.17186 17.998 5.58947 19.4157C7.00566 20.8306 7.03265 22.0878 7.03265 22.0878L6.36362 22.7526Z" fill="#6E76FB"/>
</svg>
