<svg width="40px" height="40px" viewBox="0 0 40 40" fill="none" xmlns="http://www.w3.org/2000/svg">
<path d="M31.785 8.21498C30.239 6.66511 28.402 5.43599 26.3796 4.59824C24.3571 3.76049 22.1891 3.33061 20 3.33331C17.8104 3.3275 15.6415 3.75595 13.6186 4.59388C11.5957 5.43181 9.75909 6.66258 8.21499 8.21498C5.06666 11.3633 3.33333 15.55 3.33333 20C3.33333 24.45 5.06666 28.6366 8.21499 31.785C11.3633 34.9333 15.55 36.6666 20 36.6666C24.45 36.6666 28.6367 34.9333 31.785 31.785C33.3374 30.2409 34.5682 28.4043 35.4061 26.3814C36.244 24.3585 36.6725 22.1895 36.6667 20C36.6694 17.8109 36.2395 15.6428 35.4017 13.6204C34.564 11.5979 33.3349 9.76095 31.785 8.21498ZM29.4283 29.4283C26.91 31.9466 23.5617 33.3333 20 33.3333C16.4383 33.3333 13.09 31.9466 10.5717 29.4283C8.05333 26.91 6.66666 23.5616 6.66666 20C6.66666 16.4383 8.05333 13.09 10.5717 10.5716C11.807 9.32969 13.2763 8.34507 14.8947 7.67478C16.5131 7.00449 18.2483 6.66183 20 6.66664V20H33.3333C33.3381 21.7517 32.9955 23.4869 32.3252 25.1053C31.6549 26.7237 30.6703 28.193 29.4283 29.4283Z" fill="white"/>
</svg>
