<svg width="15px" height="15px" viewBox="0 0 25 25" fill="none" xmlns="http://www.w3.org/2000/svg">
<path fill-rule="evenodd" clip-rule="evenodd" d="M1.92308 1.66667C1.41305 1.66667 0.923903 1.84226 0.563256 2.15482C0.202609 2.46738 0 2.89131 0 3.33333V5C0 5.44203 0.202609 5.86595 0.563256 6.17851C0.923903 6.49107 1.41305 6.66667 1.92308 6.66667H2.88462V21.6667C2.88462 22.5507 3.28983 23.3986 4.01113 24.0237C4.73242 24.6488 5.71071 25 6.73077 25H18.2692C19.2893 25 20.2676 24.6488 20.9889 24.0237C21.7102 23.3986 22.1154 22.5507 22.1154 21.6667V6.66667H23.0769C23.587 6.66667 24.0761 6.49107 24.4367 6.17851C24.7974 5.86595 25 5.44203 25 5V3.33333C25 2.89131 24.7974 2.46738 24.4367 2.15482C24.0761 1.84226 23.587 1.66667 23.0769 1.66667H16.3462C16.3462 1.22464 16.1435 0.800716 15.7829 0.488155C15.4222 0.175595 14.9331 0 14.4231 0L10.5769 0C10.0669 0 9.57775 0.175595 9.2171 0.488155C8.85646 0.800716 8.65385 1.22464 8.65385 1.66667H1.92308ZM7.69231 8.33333C7.94732 8.33333 8.19189 8.42113 8.37222 8.57741C8.55254 8.73369 8.65385 8.94565 8.65385 9.16667V20.8333C8.65385 21.0543 8.55254 21.2663 8.37222 21.4226C8.19189 21.5789 7.94732 21.6667 7.69231 21.6667C7.43729 21.6667 7.19272 21.5789 7.0124 21.4226C6.83207 21.2663 6.73077 21.0543 6.73077 20.8333V9.16667C6.73077 8.94565 6.83207 8.73369 7.0124 8.57741C7.19272 8.42113 7.43729 8.33333 7.69231 8.33333ZM12.5 8.33333C12.755 8.33333 12.9996 8.42113 13.1799 8.57741C13.3602 8.73369 13.4615 8.94565 13.4615 9.16667V20.8333C13.4615 21.0543 13.3602 21.2663 13.1799 21.4226C12.9996 21.5789 12.755 21.6667 12.5 21.6667C12.245 21.6667 12.0004 21.5789 11.8201 21.4226C11.6398 21.2663 11.5385 21.0543 11.5385 20.8333V9.16667C11.5385 8.94565 11.6398 8.73369 11.8201 8.57741C12.0004 8.42113 12.245 8.33333 12.5 8.33333ZM18.2692 9.16667C18.2692 8.94565 18.1679 8.73369 17.9876 8.57741C17.8073 8.42113 17.5627 8.33333 17.3077 8.33333C17.0527 8.33333 16.8081 8.42113 16.6278 8.57741C16.4475 8.73369 16.3462 8.94565 16.3462 9.16667V20.8333C16.3462 21.0543 16.4475 21.2663 16.6278 21.4226C16.8081 21.5789 17.0527 21.6667 17.3077 21.6667C17.5627 21.6667 17.8073 21.5789 17.9876 21.4226C18.1679 21.2663 18.2692 21.0543 18.2692 20.8333V9.16667Z" fill="#EF6E6E"/>
</svg>
