<svg width="40" height="40" viewBox="0 0 40 40" fill="none" xmlns="http://www.w3.org/2000/svg">
<path fill-rule="evenodd" clip-rule="evenodd" d="M40 20C40 25.3043 37.8929 30.3914 34.1421 34.1421C30.3914 37.8929 25.3043 40 20 40C14.6957 40 9.60859 37.8929 5.85786 34.1421C2.10714 30.3914 0 25.3043 0 20C0 14.6957 2.10714 9.60859 5.85786 5.85786C9.60859 2.10714 14.6957 0 20 0C25.3043 0 30.3914 2.10714 34.1421 5.85786C37.8929 9.60859 40 14.6957 40 20ZM21.25 10C21.25 9.66848 21.1183 9.35054 20.8839 9.11612C20.6495 8.8817 20.3315 8.75 20 8.75C19.6685 8.75 19.3505 8.8817 19.1161 9.11612C18.8817 9.35054 18.75 9.66848 18.75 10V18.75H10C9.66848 18.75 9.35054 18.8817 9.11612 19.1161C8.8817 19.3505 8.75 19.6685 8.75 20C8.75 20.3315 8.8817 20.6495 9.11612 20.8839C9.35054 21.1183 9.66848 21.25 10 21.25H18.75V30C18.75 30.3315 18.8817 30.6495 19.1161 30.8839C19.3505 31.1183 19.6685 31.25 20 31.25C20.3315 31.25 20.6495 31.1183 20.8839 30.8839C21.1183 30.6495 21.25 30.3315 21.25 30V21.25H30C30.3315 21.25 30.6495 21.1183 30.8839 20.8839C31.1183 20.6495 31.25 20.3315 31.25 20C31.25 19.6685 31.1183 19.3505 30.8839 19.1161C30.6495 18.8817 30.3315 18.75 30 18.75H21.25V10Z" fill="#74F471"/>
</svg>
