<svg width="60px" height="60px" viewBox="0 0 40 40" fill="none" xmlns="http://www.w3.org/2000/svg">
<path d="M16.6667 13.3334H26.6667V15.5556H16.6667V13.3334Z" fill="white"/>
<path d="M16.6667 17.7778H26.6667V20.0001H16.6667V17.7778Z" fill="white"/>
<path d="M16.6667 22.2222H26.6667V24.4444H16.6667V22.2222Z" fill="white"/>
<path d="M16.6667 26.6666H26.6667V28.8888H16.6667V26.6666Z" fill="white"/>
<path d="M12.2222 8.88892H14.4445V11.1111H12.2222V8.88892Z" fill="white"/>
<path d="M12.2222 13.3334H14.4445V15.5556H12.2222V13.3334Z" fill="white"/>
<path d="M12.2222 17.7778H14.4445V20.0001H12.2222V17.7778Z" fill="white"/>
<path d="M12.2222 22.2222H14.4445V24.4444H12.2222V22.2222Z" fill="white"/>
<path d="M12.2222 26.6666H14.4445V28.8888H12.2222V26.6666Z" fill="white"/>
<path d="M16.6667 8.88892V11.1111H26.2889C25.8516 10.4231 25.5184 9.67431 25.3 8.88892H16.6667Z" fill="white"/>
<path d="M31.1111 14.6888V35.5555H8.88889V4.44439H25.3111C25.5261 3.65962 25.8555 2.91083 26.2889 2.22217H8.88889C8.29952 2.22217 7.73429 2.45629 7.31755 2.87304C6.9008 3.28979 6.66667 3.85502 6.66667 4.44439V35.5555C6.66667 36.1449 6.9008 36.7101 7.31755 37.1269C7.73429 37.5436 8.29952 37.7777 8.88889 37.7777H31.1111C31.7005 37.7777 32.2657 37.5436 32.6825 37.1269C33.0992 36.7101 33.3333 36.1449 33.3333 35.5555V14.9999C32.5819 14.997 31.8344 14.8924 31.1111 14.6888Z" fill="white"/>
<path d="M33.3333 12.2222C36.4016 12.2222 38.8889 9.73489 38.8889 6.66664C38.8889 3.59839 36.4016 1.11108 33.3333 1.11108C30.2651 1.11108 27.7778 3.59839 27.7778 6.66664C27.7778 9.73489 30.2651 12.2222 33.3333 12.2222Z" fill="white"/>
</svg>
