<svg id="Capa_1" enable-background="new 0 0 511.992 511.992" height="512" viewBox="0 0 511.992 511.992" width="512" xmlns="http://www.w3.org/2000/svg"><g><g><g><path d="m367.393 504.492h-238.401l5.816-28.324c3.682-17.943 15.283-32.581 30.716-40.531 4.625-2.402 9.587-4.188 14.787-5.29 3.96-.844 8.059-1.28 12.247-1.28h111.271c4.178 0 8.277.437 12.237 1.28 5.2 1.102 10.172 2.898 14.797 5.29 15.422 7.959 27.034 22.588 30.716 40.531z" fill="#e27d47"/><path d="m192.557 429.068h111.271v52.212h-111.271z" fill="#9dc6fb"/><path d="m215.145 429.068c-2.481 0-4.912.437-7.265 1.28-13.398 4.774-24.186 22.498-27.034 45.82l-3.454 28.324h-48.401l5.816-28.324c4.783-23.322 22.955-41.047 45.503-45.82 3.96-.844 8.059-1.28 12.247-1.28z" fill="#dd6938"/><path d="m367.393 504.492h-36.531v-68.855c15.422 7.959 27.034 22.588 30.716 40.531z" fill="#9dc6fb"/><path d="m165.523 435.638v68.855h-36.531l5.816-28.324c3.682-17.944 15.283-32.582 30.715-40.531z" fill="#9dc6fb"/><path d="m281.175 373.988v55.08c0 18.211-14.767 32.978-32.978 32.978-18.221 0-32.988-14.767-32.988-32.978v-55.08z" fill="#ffddce"/><path d="m258.967 460.248c-3.374 1.161-6.997 1.796-10.768 1.796-18.221 0-32.988-14.767-32.988-32.978v-55.08h21.536v55.08c0 14.45 9.289 26.726 22.22 31.182z" fill="#ffcbbe"/><path d="m110.411 328.125c-23.78 0-43.057-19.277-43.057-43.057 0-3.273.365-6.46 1.057-9.524 5.586-24.738 42-20.681 42 4.68h275.567c0-25.361 36.415-29.418 42-4.68.692 3.064 1.057 6.251 1.057 9.524 0 23.78-19.277 43.057-43.057 43.057" fill="#ffcbbe"/><path d="m215.209 373.988h65.967v50.743h-65.967z" fill="#ffcbbe"/><path d="m285.554 407.272h-74.719c-55.463 0-100.424-44.961-100.424-100.424v-141.634h275.567v141.633c0 55.463-44.962 100.425-100.424 100.425z" fill="#ffddce"/><path d="m357.94 191.932s-6.551 71.414 28.035 71.414v-88.239z" fill="#655e66"/><path d="m276.801 407.271h-65.967c-55.457 0-100.424-44.967-100.424-100.424v-141.639h65.967v141.639c0 55.458 44.957 100.424 100.424 100.424z" fill="#ffcbbe"/><path d="m138.446 191.932s6.551 71.414-28.035 71.414v-88.239z" fill="#535057"/><g fill="#eab1b7"><ellipse cx="329.356" cy="313.987" rx="22.554" ry="13.714"/><ellipse cx="167.033" cy="313.987" rx="22.554" ry="13.714"/></g><path d="m398.377 122.626v69.301h-300.368v-69.301c0-32.829 17.784-61.521 44.252-76.923 9.845-5.746 20.891-9.646 32.671-11.234 3.94-.536 7.959-.814 12.048-.814h122.436c4.089 0 8.108.278 12.048.814 11.78 1.588 22.826 5.488 32.671 11.234 26.457 15.413 44.242 44.094 44.242 76.923z" fill="#e27d47"/><g fill="#dd6938"><path d="m354.134 45.703v33.981c0 9.021-7.314 16.335-16.335 16.335s-16.335-7.314-16.335-16.335v-45.215c11.78 1.588 22.825 5.488 32.67 11.234z"/><path d="m174.932 34.469v45.215c0 9.021-7.314 16.335-16.335 16.335s-16.335-7.314-16.335-16.335v-33.981c9.844-5.746 20.889-9.646 32.67-11.234z"/></g><path d="m207.758 148.165c-2.636-40.568-2.929-81.136-.878-121.705.458-8.321 7.726-16.479 16.081-17.502 16.822-1.955 33.643-1.955 50.465 0 8.356 1.023 15.622 9.181 16.081 17.502 2.051 40.568 1.758 81.136-.878 121.705l-46.735 17.05z" fill="#e27d47"/><g fill="#dd6938"><path d="m227.662 23.274c-2.104 41.632-1.806 95.481.903 137.104l-20.811-12.217c-2.64-40.561-2.928-81.131-.873-121.701.456-8.317 7.721-16.474 16.077-17.506 4.803-.556 9.597-.953 14.39-1.181-5.389 3.305-9.349 9.358-9.686 15.501z"/><path d="m227.415 33.657c-49.137 0-88.972 39.834-88.972 88.972v69.303h-40.437v-69.303c0-49.138 39.835-88.972 88.972-88.972z"/><path d="m286.782 232.501h-77.177c-8.945 0-17.003-5.405-20.396-13.682l-8.6-20.977 67.584-24.839 67.584 24.839-8.6 20.977c-3.392 8.277-11.45 13.682-20.395 13.682z"/></g><path d="m394.859 148.165h-293.331c-13.718 0-24.839 11.121-24.839 24.839 0 13.718 11.121 24.839 24.839 24.839h293.332c13.718 0 24.839-11.121 24.839-24.839-.001-13.719-11.122-24.839-24.84-24.839z" fill="#e27d47"/><path d="m151.409 197.833h-49.88c-13.72 0-24.84-11.12-24.84-24.83v-.01c0-13.71 11.12-24.83 24.84-24.83h49.88c-13.72 0-24.84 11.12-24.84 24.83v.01c0 13.711 11.12 24.83 24.84 24.83z" fill="#dd6938"/></g><path d="m415.136 504.492v-66.426-8.346s16.868-7.061 27.81-17.187c.916-.848 1.461-2.019 1.535-3.265.428-7.265.949-33.668-11.92-55.378 0 0-4.24-5.654-17.425-5.654 0 0 4.708 23.616 0 38.186 0 0-9.421 4.588-18.843 4.588s-18.843-4.588-18.843-4.588c-4.708-14.57 0-38.186 0-38.186-13.184 0-17.425 5.654-17.425 5.654-12.868 21.71-12.348 48.113-11.92 55.378.073 1.246.618 2.417 1.535 3.265 10.942 10.125 27.81 17.187 27.81 17.187v8.346 66.426" fill="#c3bec6"/><path d="m407.191 446.595h-30.23c-10.893 0-19.723 8.83-19.723 19.723v18.451c0 10.893 8.83 19.723 19.723 19.723h30.23c10.893 0 19.723-8.83 19.723-19.723v-18.451c0-10.893-8.83-19.723-19.723-19.723z" fill="#ffddce"/><path d="m399.768 504.488h-22.8c-10.9 0-19.73-8.83-19.73-19.72v-18.45c0-10.9 8.83-19.73 19.73-19.73h22.8c-10.89 0-19.72 8.83-19.72 19.73v18.45c0 10.89 8.83 19.72 19.72 19.72z" fill="#ffcbbe"/></g><g><ellipse cx="177.507" cy="272.083" rx="12.999" ry="21.581"/><path d="m318.88 293.664c7.168 0 12.999-9.681 12.999-21.582 0-11.9-5.831-21.581-12.999-21.581-7.167 0-12.998 9.681-12.998 21.581 0 11.901 5.831 21.582 12.998 21.582z"/><path d="m248.197 343.875c14.453 0 27.423-8.609 33.042-21.934 1.609-3.817-.181-8.215-3.997-9.825-3.814-1.61-8.215.18-9.825 3.997-3.269 7.752-10.813 12.762-19.22 12.762s-15.951-5.009-19.22-12.762c-1.61-3.817-6.009-5.606-9.825-3.997s-5.606 6.008-3.997 9.825c5.619 13.325 18.589 21.934 33.042 21.934z"/><path d="m234.777 298.69h26.834c4.143 0 7.5-3.358 7.5-7.5s-3.357-7.5-7.5-7.5h-26.834c-4.143 0-7.5 3.358-7.5 7.5s3.357 7.5 7.5 7.5z"/><path d="m439.009 350.068c-.137-.232-.287-.456-.448-.672-1.084-1.447-7.306-8.664-23.423-8.664-2.244 0-4.37 1.008-5.795 2.742s-1.997 4.018-1.562 6.22c1.084 5.472 3.13 20.692 1.035 31.234-3.023 1.119-7.873 2.584-12.528 2.584-4.656 0-9.498-1.464-12.518-2.582-2.097-10.542-.05-25.763 1.033-31.231.04-.201.063-.403.086-.604 1.898-4.451 3.485-8.994 4.756-13.618 26.17-1.888 46.888-23.767 46.888-50.41 0-3.768-.417-7.527-1.241-11.176-3.337-14.779-16.184-23.927-31.243-22.249-3.856.43-7.412 1.525-10.572 3.164v-49.464h1.381c17.832 0 32.339-14.507 32.339-32.339 0-13.964-8.897-25.887-21.32-30.403v-19.978c0-3.707-.215-7.443-.64-11.104-.478-4.115-4.2-7.063-8.314-6.586s-7.063 4.199-6.586 8.314c.358 3.089.54 6.244.54 9.376v18.042h-94.304c1.895-33.036 2.272-66.4 1.075-99.512h11.769c1.524 0 3.038.054 4.546.136v38.396c0 13.143 10.692 23.835 23.835 23.835 13.144 0 23.836-10.692 23.836-23.835v-19.703c8.628 7.219 15.823 16.308 21.006 26.906 1.301 2.661 3.968 4.207 6.743 4.207 1.105 0 2.229-.246 3.289-.764 3.721-1.82 5.263-6.311 3.442-10.032-7.819-15.99-19.899-29.507-34.936-39.089-15.456-9.85-33.355-15.056-51.762-15.056h-12.416c-.002-.035-.003-.071-.005-.106-.667-12.079-10.832-23.084-22.704-24.538-17.317-2.012-34.879-2.012-52.241.006-11.829 1.448-21.994 12.454-22.66 24.567-.001.025-.002.049-.003.074h-12.407c-53.194 0-96.472 43.277-96.472 96.471v19.973c-12.422 4.516-21.319 16.439-21.319 30.403 0 17.832 14.507 32.339 32.339 32.339h1.38v49.463c-3.16-1.639-6.715-2.733-10.57-3.163-15.06-1.677-27.906 7.47-31.244 22.25-.823 3.648-1.24 7.408-1.24 11.175 0 26.652 20.733 48.537 46.916 50.412 12.311 44.698 52.712 77.87 100.942 79.245v6.838h-15.153c-25.132 0-48.538 14.562-59.629 37.098-1.829 3.717-.299 8.212 3.418 10.041 1.065.524 2.193.772 3.306.772 2.769 0 5.431-1.539 6.735-4.19 2.897-5.887 6.883-11.067 11.636-15.352v47.06h-19.837l.948-4.61c.834-4.057-1.779-8.023-5.837-8.857-4.048-.832-8.021 1.779-8.856 5.836l-2.8 13.62c-.453 2.208.109 4.503 1.534 6.25 1.424 1.747 3.559 2.76 5.813 2.76h278.203c15.011 0 27.224-12.212 27.224-27.223v-18.451c0-9.278-4.669-17.482-11.776-22.399v-9.383c6.145-2.97 17.178-8.881 25.43-16.522 2.336-2.181 3.721-5.137 3.897-8.297.475-8.06.952-36.184-12.959-59.647zm-92.375-270.384c0 4.872-3.964 8.835-8.836 8.835s-8.835-3.963-8.835-8.835v-36.192c6.173 1.504 12.095 3.718 17.671 6.571zm59.078 186.866c5.643-.629 12.948 1.781 14.949 10.644.579 2.566.873 5.215.873 7.873 0 17.313-12.44 31.767-28.85 34.914.522-4.326.793-8.705.793-13.129v-10.325c2.316-2.537 7.304-6.947 12.504-4.85 3.839 1.55 8.211-.309 9.761-4.149 1.55-3.841-.308-8.211-4.149-9.761-5.829-2.352-12.05-2.177-17.983.406.918-7.629 6.904-11.043 12.102-11.623zm-27.234-12.869c-.868-.58-1.699-1.267-2.494-2.094-7.073-7.359-11.081-24.369-11.051-46.244h13.545zm-164.109-226.809c.266-4.816 4.884-9.904 9.459-10.464 16.168-1.879 32.564-1.879 48.688-.006 4.618.566 9.237 5.654 9.502 10.436 1.908 37.765 1.732 76.017-.468 113.826h-66.711c-2.201-37.817-2.377-76.068-.47-113.792zm-64.608 23.319c5.553-2.865 11.47-5.115 17.67-6.648v36.142c0 4.872-3.963 8.835-8.835 8.835s-8.835-3.963-8.835-8.835zm-15 9.96v19.533c0 13.143 10.692 23.835 23.835 23.835s23.835-10.692 23.835-23.835v-38.395c1.507-.083 3.022-.134 4.549-.134h11.758c-1.197 33.09-.82 66.46 1.075 99.51h-94.305v-18.039c0-25.067 11.388-47.518 29.253-62.475zm-50.572 112.852c0-9.561 7.778-17.339 17.339-17.339h293.331c9.561 0 17.339 7.778 17.339 17.339s-7.778 17.339-17.339 17.339h-293.331c-9.561 0-17.339-7.778-17.339-17.339zm220.408 32.339-4.358 10.632c-2.248 5.484-7.53 9.027-13.457 9.027h-77.177c-5.927 0-11.209-3.543-13.457-9.027l-4.358-10.632zm-173.144 0c.031 21.874-3.977 38.884-11.051 46.244-.795.827-1.626 1.515-2.494 2.095v-48.339zm-56.6 79.725c0-2.658.294-5.307.872-7.872 2.002-8.864 9.304-11.274 14.95-10.645 5.198.58 11.185 3.994 12.102 11.623-5.934-2.583-12.155-2.758-17.983-.406-3.842 1.55-5.699 5.92-4.149 9.761 1.549 3.841 5.919 5.699 9.761 4.149 5.174-2.088 10.166 2.309 12.502 4.859v10.316c0 4.444.276 8.825.8 13.13-16.412-3.144-28.855-17.6-28.855-34.915zm43.055 21.786v-36.963c5.02-1.317 9.538-3.984 13.31-7.909 12.743-13.26 15.237-38.694 15.23-56.638h29.131l6.691 16.322c4.567 11.139 15.298 18.337 27.336 18.337h77.177c12.038 0 22.769-7.198 27.336-18.337l6.691-16.322h29.129c-.007 17.945 2.489 43.381 15.23 56.638 3.772 3.925 8.29 6.592 13.31 7.909v36.963c0 11.85-2.185 23.326-6.49 34.18-12.095 1.376-17.011 7.094-17.962 8.364-.161.216-.312.44-.448.672-5.822 9.82-9.118 20.452-10.954 30.091-16.249 12.657-36.404 19.614-57.076 19.614h-74.72c-51.238-.002-92.921-41.685-92.921-92.921zm252.041 127.683v5.479c-5.103 1.362-9.621 4.169-13.083 7.959-12.401-16.379-31.992-26.411-53.037-26.411h-15.151v-6.858c18.313-.535 36.173-5.746 51.829-15.001-.132 4.404-.01 7.887.114 9.988.178 3.185 1.563 6.141 3.922 8.344 8.236 7.625 19.263 13.531 25.406 16.5zm-20.17 30.304c-.026.489-.042.982-.042 1.477v18.451c0 4.394 1.053 8.545 2.91 12.223h-14.286v-47.097c4.628 4.182 8.528 9.22 11.418 14.946zm-149.718-28.277h8.357c3.527 18.751 20.016 32.987 39.776 32.987s36.249-14.235 39.776-32.987h8.36v37.219h-96.269zm73.616-21.791v14.294c0 14.051-11.432 25.483-25.483 25.483-14.052 0-25.483-11.432-25.483-25.483v-14.294zm-100.654 25.696c3.84-1.588 7.881-2.72 12.038-3.342v44.155c0 4.142 3.357 7.5 7.5 7.5h111.269c4.143 0 7.5-3.358 7.5-7.5v-44.165c4.164.617 8.2 1.742 12.032 3.318v56.558h-150.339zm246.392 44.301c0 6.74-5.483 12.223-12.224 12.223h-30.229c-6.74 0-12.224-5.483-12.224-12.223v-18.451c0-6.74 5.483-12.223 12.224-12.223h30.229c6.74 0 12.224 5.483 12.224 12.223zm17.632-77.01c-9.831 8.7-24.656 14.982-24.805 15.045-2.789 1.167-4.604 3.895-4.604 6.918v9.384c-.149-.002-.297-.011-.447-.011h-22.242v-9.372c0-3.023-1.815-5.751-4.604-6.918-.152-.064-14.953-6.313-24.805-15.044-.367-8.028-.26-30.524 10.485-49.261.384-.298 1.197-.844 2.563-1.371-.942 8.899-1.447 21.79 1.725 31.602.628 1.941 2.019 3.542 3.852 4.435 1.123.547 11.288 5.348 22.125 5.348 10.847 0 21.012-4.801 22.135-5.348 1.833-.893 3.224-2.495 3.852-4.435 3.172-9.812 2.667-22.703 1.725-31.602 1.365.528 2.179 1.073 2.563 1.371 10.732 18.719 10.85 41.191 10.482 49.259z"/></g></g></svg>